<svg width="86" height="68" viewBox="0 0 86 68" fill="none" xmlns="http://www.w3.org/2000/svg">
<path d="M13.83 0C11.2828 0 7.64946 0.781354 5.2507 1.70335C5.10615 1.76586 5.08662 1.86744 5.16866 1.96902C5.35228 2.19561 5.72342 2.4808 6.05159 2.60582C6.70793 2.83241 7.24315 2.78943 7.91903 2.60582C9.25124 2.23467 11.7359 1.37518 13.6893 1.37518C15.0215 1.37518 15.5372 1.82446 15.5372 2.56675C15.5372 5.46167 9.56378 12.5642 6.05159 15.295C5.86797 15.4396 6.09066 15.4982 6.39929 15.4982C6.95405 15.4982 7.52835 15.2716 8.0206 14.9239C10.8725 12.8923 17.4437 5.74686 17.4437 2.32062C17.4437 0.925906 16.3147 0 13.83 0Z" fill="#E5B10C"/>
<path d="M26.8669 10.9194C26.2926 11.6578 24.7924 13.3416 23.0499 13.3416C22.3741 13.3416 22.0459 12.9119 22.085 12.3337C22.085 12.2126 22.1045 12.0876 22.1475 11.9625C24.3236 12.0446 26.0464 10.771 26.1324 9.64191C26.1715 9.04418 25.8042 8.63397 25.0033 8.63397C23.2531 8.63397 21.4404 10.017 20.6903 11.4898C20.0222 12.2634 19.1315 13.1111 18.4126 13.1111C18.2485 13.1111 18.147 13.0291 18.147 12.865C18.147 12.1891 19.0103 11.0796 19.5417 10.2592C19.7683 9.91148 19.8073 9.62238 19.7448 9.39579C19.6823 9.16919 19.6003 8.98557 19.4792 8.82149C19.3581 8.67694 19.233 8.6574 19.0494 8.75898C18.0024 9.35672 16.2561 10.728 15.2091 11.8805C17.7328 8.43081 21.5537 4.3873 22.9249 2.14873C23.214 1.67601 23.2961 1.41035 23.1515 0.93763C23.0695 0.668063 22.8429 0.320359 22.6163 0.136741C22.5147 0.0546985 22.4092 0.0351646 22.3311 0.136741C20.4637 2.1917 15.1036 9.72396 13.1971 12.8845C12.9509 13.2752 12.8689 13.5213 13.0525 13.7675C13.1541 13.912 13.2791 14.0527 13.4237 14.1581C13.5487 14.2402 13.6073 14.2402 13.7518 14.0956C14.9629 12.6775 17.1195 10.771 18.4947 9.90757C17.5492 10.8921 16.4827 12.3102 16.4827 13.3573C16.4827 13.9745 16.9359 14.4043 17.5727 14.4043C18.5884 14.4043 19.5729 13.5917 20.3269 12.7869C20.3269 12.7908 20.3269 12.7986 20.3269 12.8064C20.3269 13.8339 21.0458 14.5723 22.3585 14.5723C24.6361 14.5723 26.3199 12.5407 26.9958 11.6578C27.1599 11.4547 27.1599 11.1851 27.0778 10.939C27.0388 10.8139 26.9528 10.8139 26.8708 10.9155L26.8669 10.9194ZM24.6088 9.42314C24.7924 9.42314 24.8158 9.58722 24.7533 9.7513C24.5267 10.3256 23.6047 11.189 22.3311 11.4976C22.8429 10.4506 23.9915 9.42314 24.6088 9.42314Z" fill="#E5B10C"/>
<path d="M79.995 10.9429C79.9521 10.8413 79.8935 10.8179 79.8114 10.9194C79.1746 11.7008 78.7449 12.1735 77.901 12.6032C78.4558 11.5562 77.9831 9.97398 78.3503 9.05199C78.8855 8.84883 79.1512 8.57927 79.0887 8.35268C79.0066 8.12608 78.3894 8.04404 77.6315 8.33314C76.6469 8.70429 75.9086 9.60284 74.8811 10.9155C74.2247 11.7594 73.0527 13.0095 72.1932 13.0095C72.0291 13.0095 71.9276 12.9275 71.9276 12.7634C71.9041 12.2282 72.791 11.0601 73.1777 10.2982C73.2793 10.0717 73.2598 9.92711 73.1973 9.74349C73.1348 9.55987 73.0136 9.37235 72.9121 9.27077C72.8105 9.1692 72.748 9.1692 72.666 9.27077C71.9471 10.2983 69.8531 12.8416 69.0952 12.8416C68.9506 12.8416 68.8686 12.7595 68.8686 12.5954C68.8686 11.8766 69.9976 10.5209 70.5719 9.55596C70.7555 9.24733 70.7555 9.02073 70.6735 8.79805C70.611 8.63396 70.4703 8.43081 70.3453 8.3058C70.2633 8.22376 70.2008 8.24329 70.1383 8.3058C69.2788 9.21608 68.2669 10.4233 67.6145 11.5133C67.2004 11.9274 66.8214 12.1422 66.4425 12.1422C66.3604 12.1422 66.2979 12.1227 66.2354 12.0993C66.6261 11.4234 66.8527 10.7241 66.8527 10.2123C66.8527 9.94664 66.7511 9.80209 66.5636 9.80209C65.9502 9.80209 65.2314 10.7866 65.2314 11.6891C65.2314 11.8961 65.2743 12.0797 65.3329 12.2634C64.9032 12.7126 64.3875 13.0447 63.9578 13.0447C63.6101 13.0447 63.4655 12.8181 63.4655 12.447C63.4655 11.1538 65.0243 9.36844 66.7511 8.93479C66.9152 8.89572 66.9152 8.7707 66.7902 8.7082C66.5245 8.58318 66.2159 8.52458 65.8877 8.52458C64.0671 8.52458 62.3169 9.97008 61.77 11.6695C61.1175 12.3806 60.3049 13.0603 59.5236 13.0603C59.2579 13.0603 59.0508 12.9158 59.0508 12.6697C59.0508 11.1304 63.1569 6.71574 65.1063 4.2115C66.0713 2.98087 66.6651 2.11747 66.8331 1.58224C66.9152 1.31658 66.9152 1.10953 66.7902 0.863399C66.7081 0.699314 66.544 0.472723 66.38 0.351613C66.2784 0.269571 66.2159 0.269572 66.1338 0.371148C65.5791 1.07046 62.9928 4.16852 61.5551 6.09847C59.7072 8.57146 58.4883 10.1576 57.9023 11.4156C57.2381 12.1735 56.3395 12.9939 55.6441 12.9939C55.4801 12.9939 55.3785 12.9119 55.3785 12.7478C55.355 12.2126 56.2419 11.0444 56.6286 10.2826C56.7302 10.056 56.7107 9.91148 56.6482 9.72786C56.5857 9.54424 56.4646 9.35672 56.363 9.25514C56.2614 9.15356 56.1989 9.15356 56.1169 9.25514C55.398 10.2826 53.304 12.8259 52.5461 12.8259C52.4015 12.8259 52.3195 12.7439 52.3195 12.5798C52.3195 11.861 53.4485 10.5053 54.0228 9.54033C54.2065 9.2317 54.2064 9.00511 54.1244 8.78242C54.0619 8.61834 53.9213 8.41518 53.7962 8.29017C53.7142 8.20813 53.6517 8.22766 53.5892 8.29017C52.7336 9.19654 51.7257 10.3998 51.0693 11.4898C50.6435 11.9078 50.245 12.1266 49.8504 12.1266C49.7058 12.1266 49.5418 12.0641 49.4402 11.9196C49.6472 11.3843 49.7488 10.853 49.7488 10.3803C49.7488 9.78256 49.5652 9.33327 49.2761 9.33327C48.9479 9.33327 48.3932 10.0521 48.3932 11.1187C48.3932 11.5289 48.4557 11.8805 48.6002 12.1657C48.0884 12.9041 47.3462 13.3143 46.7914 13.3143C46.4007 13.3143 46.1546 13.0681 46.1546 12.697C46.1546 10.7046 50.4872 6.53994 52.3742 4.21931C53.5032 2.8246 54.101 1.87916 54.101 1.24236C54.101 0.851679 53.8744 0.586016 53.6087 0.378957C53.4876 0.296915 53.4446 0.27738 53.3235 0.402397C51.8429 2.02371 48.7878 5.67654 47.3891 7.54397C46.3773 8.93478 45.549 10.0834 45.0959 11.1773C44.4161 11.986 43.4003 12.9627 42.7049 12.9627C42.5799 12.9627 42.5018 12.8806 42.5018 12.7595C42.5018 12.4704 42.869 12.0016 43.1386 11.5484C43.3222 11.2202 43.162 10.9351 42.994 10.728C42.8299 10.5248 42.6854 10.5444 42.5447 10.6889C42.2361 10.9976 41.8259 11.4898 41.3961 11.8805C40.8023 12.4548 40.1655 12.8884 39.7553 12.8884C39.5717 12.8884 39.4271 12.8064 39.4271 12.5173C39.4271 11.3257 41.7087 9.11059 42.4861 9.11059C42.5682 9.11059 42.6073 9.14966 42.6073 9.21217C42.6073 9.39578 42.4627 9.60284 42.4627 9.806C42.4627 10.0521 42.6463 10.2592 43.119 10.2162C43.7168 10.1537 44.127 9.5169 44.1465 9.00511C44.1465 8.67694 43.8183 8.3683 43.0995 8.3683C40.5953 8.3683 37.3097 11.5484 37.3097 13.4588C37.3097 14.1152 37.7628 14.4043 38.2746 14.4043C39.0951 14.4043 40.103 13.7284 40.9039 12.947C40.7203 13.6659 41.15 14.1777 41.8884 14.1777C42.9823 14.1777 44.0098 13.2908 44.7599 12.4665C44.7442 12.6072 44.7247 12.7439 44.7247 12.8845C44.7247 13.8886 45.342 14.6074 46.307 14.6074C47.436 14.6074 48.4205 13.7636 49.0378 12.7165C49.2644 12.8611 49.5105 12.9431 49.7762 12.9431C50.0418 12.9431 50.2645 12.8689 50.4833 12.7595C50.4208 12.9744 50.3856 13.1736 50.3934 13.3533C50.413 13.9511 50.7216 14.2558 51.3389 14.2558C52.1593 14.2558 53.1868 13.537 53.8431 12.7595C53.6361 13.662 54.1908 14.2167 54.8706 14.2167C55.8785 14.2167 56.8045 13.4823 57.5233 12.7322C57.5194 12.8025 57.4999 12.8767 57.4999 12.9431C57.4999 13.7831 58.0351 14.3183 58.875 14.3183C59.8869 14.3183 60.848 13.537 61.5903 12.7517C61.6098 13.7714 62.313 14.3574 63.1217 14.3574C64.1296 14.3574 65.0712 13.6581 65.751 12.7751C65.915 12.8767 66.0987 12.9392 66.3253 12.9392C66.5792 12.9392 66.8136 12.865 67.0324 12.7556C66.9699 12.9705 66.9347 13.1697 66.9425 13.3494C66.9621 13.9472 67.2707 14.2519 67.888 14.2519C68.7084 14.2519 69.7359 13.5331 70.3922 12.7556C70.1851 13.6581 70.7399 14.2128 71.4197 14.2128C72.959 14.2128 74.3107 12.5134 75.01 11.6266C75.9555 10.4155 76.4672 9.86069 76.9595 9.53252C76.5493 10.4975 76.7759 12.2008 76.2211 12.9197C75.0725 12.9588 74.1896 13.4315 74.1896 13.9276C74.1896 14.2558 74.5568 14.4629 75.1546 14.4629C75.9555 14.4629 76.7563 14.1542 77.2681 13.5799C78.4402 13.1697 79.2371 12.5329 79.9364 11.6305C80.1005 11.4273 80.1005 11.1812 79.999 10.9116L79.995 10.9429Z" fill="#E5B10C"/>
<path d="M42.24 7.25096C42.6776 7.17283 43.4394 6.97358 43.541 6.44617C43.6386 5.93438 42.8612 5.85625 42.5369 5.91094C42.283 5.95392 42.029 5.98517 41.779 6.02424C41.6735 5.92657 41.5446 5.86016 41.4001 5.87969C40.189 6.03205 38.9739 6.15707 37.755 6.26255C38.3606 4.903 38.8841 3.50828 39.3646 2.09403C42.1345 1.94166 44.9005 1.7854 47.6704 1.63303C48.1666 1.60568 48.9089 1.48458 49.1902 1.01186C49.4519 0.574298 48.9675 0.33598 48.5729 0.359421L48.4674 0.367236C48.1431 0.261753 47.8032 0.21878 47.4595 0.234407C47.4009 0.234407 47.3423 0.25785 47.2876 0.273477C43.6699 0.414121 40.0561 0.632899 36.4502 0.937627C36.3291 0.949347 36.2353 0.992319 36.1533 1.05092C36.1064 1.05092 36.0595 1.05483 36.0087 1.05874C35.5126 1.08608 34.7703 1.20719 34.489 1.67991C34.2272 2.11747 34.7117 2.35578 35.1062 2.33234C36.0829 2.27765 37.0635 2.22295 38.0402 2.16826C38.0168 2.1917 37.9894 2.21123 37.9738 2.23467C37.2276 3.60595 36.5283 5.00066 35.8407 6.40319C35.8134 6.40319 35.7899 6.40711 35.7626 6.40711C35.579 6.4032 35.3953 6.4071 35.2117 6.39929C34.6999 6.37976 33.9811 6.5751 33.6959 7.04C33.4107 7.50881 33.942 7.74713 34.3327 7.76276C34.6179 7.77448 34.9031 7.77057 35.1883 7.77448C34.657 8.89963 34.1452 10.0326 33.6529 11.1773C33.0122 12.2673 32.4106 13.3729 31.9457 14.5605C31.6644 15.2755 32.8169 15.5841 33.0943 14.877C33.9655 12.6579 35.3719 10.7124 36.5518 8.66131C36.7197 8.3683 36.8682 8.06748 37.0245 7.76666C38.7708 7.71197 40.5171 7.55179 42.24 7.25487V7.25096Z" fill="#E5B10C"/>
<path d="M0 19.862C1.92604 19.8581 2.89101 19.8542 4.81705 19.8503C6.05159 30.3439 6.66104 35.5008 7.87996 45.6701C7.91512 45.6662 7.93075 45.6623 7.96591 45.6584C9.23561 35.1727 9.87241 30.0157 11.1538 19.8347C12.908 19.8347 13.7831 19.8308 15.5372 19.8269C13.9355 30.7697 12.3649 41.7165 10.8413 52.6672C8.31752 53.0461 7.05954 53.2532 4.54748 53.7103C3.00821 42.4314 1.49239 31.1448 0 19.862Z" fill="#D62C6B"/>
<path d="M18.8892 19.823C24.097 19.8151 26.6989 19.8112 31.9105 19.8073C31.9105 21.5732 31.9066 22.4561 31.9027 24.2181C28.6015 24.2415 26.9489 24.261 23.6516 24.3079C23.6399 27.6326 23.636 29.2969 23.6242 32.6215C26.2496 32.5239 27.5623 32.4848 30.1876 32.4223C30.1837 34.1921 30.1798 35.0789 30.1759 36.8487C27.5466 36.9307 26.234 36.9854 23.6086 37.1182C23.5969 40.982 23.5891 42.9159 23.5774 46.7797C26.8825 46.5218 28.539 46.4242 31.8558 46.2874C31.8558 48.0533 31.8519 48.9362 31.848 50.6982C26.609 50.9521 23.9954 51.167 18.7838 51.7608C18.8267 38.9857 18.8502 32.5981 18.8892 19.823Z" fill="#D62C6B"/>
<path d="M35.157 43.2909C35.1688 36.8174 35.1727 33.5787 35.1844 27.1052C35.1922 22.1787 37.6261 19.3659 42.3142 19.3659C47.0024 19.3659 49.4363 22.1787 49.4441 27.1013C49.4441 28.1561 49.4441 28.6835 49.448 29.7383C47.6392 29.7188 46.7328 29.711 44.924 29.7032C44.924 28.5272 44.924 27.9412 44.924 26.7692C44.924 24.5775 43.9668 23.7414 42.4471 23.7414C40.9273 23.7414 39.9702 24.5775 39.9702 26.7692C39.9702 33.481 39.9663 36.8369 39.9624 43.5488C39.9624 45.7405 40.9195 46.514 42.4471 46.514C43.9746 46.514 44.9357 45.7366 44.9357 43.5488C44.9357 41.1461 44.9357 39.9467 44.9357 37.548C43.9785 37.5402 43.498 37.5402 42.5408 37.5402C42.5408 35.7899 42.5408 34.9109 42.5408 33.1607C45.3107 33.1607 46.6937 33.1724 49.4636 33.2115C49.4714 37.2393 49.4714 39.2513 49.4793 43.2753C49.4871 48.1978 47.0453 50.8857 42.3221 50.8935C37.6027 50.9013 35.1609 48.2174 35.1688 43.2909H35.157Z" fill="#D62C6B"/>
<path d="M56.9295 19.8112C59.5158 19.8112 60.8089 19.8151 63.3952 19.8191C65.1102 30.5509 66.798 41.2907 68.4466 52.0304C66.5401 51.7921 65.583 51.6827 63.6687 51.4873C63.3131 48.9362 63.1334 47.6665 62.7779 45.131C62.7779 45.1662 62.7779 45.1857 62.7779 45.2209C60.6057 45.049 59.5158 44.9786 57.3397 44.8536C56.9998 47.2719 56.8279 48.4791 56.4841 50.8896C54.7065 50.7724 53.8158 50.7255 52.0343 50.6474C54.0033 38.3997 54.98 32.2543 56.9256 19.8112H56.9295ZM62.2075 40.8961C61.3363 34.6062 60.8988 31.4847 60.0315 25.2768C59.9963 25.2768 59.9807 25.2768 59.9455 25.2768C59.129 31.4612 58.7227 34.5319 57.9023 40.6578C59.6251 40.7437 60.4846 40.7906 62.2075 40.9V40.8961Z" fill="#D62C6B"/>
<path d="M71.029 44.5255C71.029 43.7871 71.029 43.4159 71.0212 42.6776C72.8261 42.8456 73.7247 42.9393 75.5257 43.1386C75.5257 44.0449 75.5257 44.4981 75.5335 45.4006C75.5413 47.7564 76.4907 48.7331 78.0026 48.9557C79.5106 49.1784 80.456 48.4596 80.4521 45.9475C80.4482 43.1464 79.4911 41.1891 76.3774 37.9308C72.3847 33.7545 71.072 31.1213 71.0603 27.4177C71.0446 22.3272 73.5059 19.3659 78.151 19.3659C82.7962 19.3659 85.0973 22.5382 85.0973 28.0936V29.5313C83.3002 29.4258 82.3977 29.375 80.6006 29.2813C80.6006 28.5858 80.6006 28.2381 80.6006 27.5388C80.6006 25.1205 79.7294 24.179 78.2097 24.1399C76.6899 24.1048 75.8265 24.9838 75.8343 27.2497C75.8421 29.6602 76.854 31.4065 79.9638 34.6921C83.9487 38.9036 85.1871 41.9392 85.1871 46.2562C85.1871 51.9132 82.7142 54.5307 78.0612 53.7337C73.4082 52.9367 71.0524 49.7058 71.0368 44.5216L71.029 44.5255Z" fill="#D62C6B"/>
<path d="M28.324 63.0748L22.0927 56.2145L22.038 56.1559H18.5923V67.7043H21.9716V60.7308L28.3944 67.7043H31.6917V56.1559H28.324V63.0748Z" fill="#D62C6B"/>
<path d="M41.1617 55.9723H40.5014C35.4109 55.9723 33.5982 58.918 33.5982 61.6723V62.1216C33.5982 64.9071 35.4109 67.8801 40.5014 67.8801H41.1617C46.2522 67.8801 48.0649 64.9032 48.0649 62.1216V61.6723C48.0649 57.4686 44.4981 55.9723 41.1617 55.9723ZM44.4863 61.7934V62.0044C44.4863 63.1061 44.0136 64.954 40.8296 64.954C37.6456 64.954 37.1729 62.8912 37.1729 62.0044V61.7934C37.1729 60.7073 37.6456 58.8868 40.8296 58.8868C44.0136 58.8868 44.4863 60.4651 44.4863 61.7934Z" fill="#D62C6B"/>
<path d="M62.9224 63.7859L60.7268 56.2848L60.6916 56.1559H56.8122L54.5932 63.7585L52.3038 56.2809L52.2647 56.1559H48.5572L52.4874 67.5832L52.5304 67.7043H56.3864L58.6288 60.3049L60.8752 67.7043H64.8367L68.6732 56.1559H65.2391L62.9224 63.7859Z" fill="#D62C6B"/>
<path d="M10.3176 57.531L11.8021 60.4455L14.7127 61.93L11.8021 63.4146L10.3176 66.3291L8.82907 63.4146L5.91853 61.93L8.82907 60.4455L10.3176 57.531Z" fill="#E5B10C"/>
<path d="M75.424 57.531L76.9086 60.4455L79.8192 61.93L76.9086 63.4146L75.424 66.3291L73.9395 63.4146L71.025 61.93L73.9395 60.4455L75.424 57.531Z" fill="#E5B10C"/>
</svg>
