<svg width="200" height="45" viewBox="0 0 200 45" fill="none" xmlns="http://www.w3.org/2000/svg">
<path d="M39.9949 29.66C39.9949 31.34 40.2949 32.85 40.8949 34.19C41.4949 35.52 42.3149 36.59 43.3249 37.41C44.3449 38.22 45.4849 38.83 46.7449 39.26C48.0049 39.68 49.3449 39.9 50.7449 39.9C52.9849 39.9 54.8649 39.52 56.4049 38.74C58.2049 37.83 59.1049 36.7 59.1049 35.36C59.1049 34.65 58.9649 34.07 58.6649 33.6C58.3749 33.13 57.9649 32.9 57.4249 32.9C57.2049 32.9 56.9849 32.94 56.7649 33.04C56.5449 33.13 56.2549 33.28 55.8749 33.5C55.5049 33.71 55.1749 33.89 54.8749 34.03C53.7149 34.57 52.5749 34.84 51.4349 34.84C50.2949 34.84 49.1649 34.39 48.1749 33.5C47.1849 32.61 46.6849 31.3 46.6849 29.59C46.6849 27.88 47.2049 26.65 48.2349 25.81C49.2649 24.97 50.3949 24.55 51.6149 24.55C52.6949 24.55 53.7449 24.81 54.7549 25.33C55.0849 25.49 55.4049 25.68 55.7149 25.88C56.0249 26.09 56.2549 26.23 56.4249 26.3C56.5949 26.37 56.7949 26.41 57.0249 26.41C57.5449 26.41 57.9449 26.19 58.2449 25.75C58.5449 25.31 58.6949 24.8 58.6949 24.23C58.6949 23.34 58.4849 22.61 58.0549 22.04C57.6349 21.47 56.9849 20.97 56.1149 20.54C54.7549 19.85 52.9549 19.51 50.7449 19.51C47.7849 19.51 45.2449 20.44 43.1449 22.29C41.0449 24.15 39.9849 26.61 39.9849 29.67L39.9949 29.66ZM60.9949 29.73C60.9949 32.91 62.0049 35.4 64.0249 37.19C66.0449 38.98 68.6449 39.87 71.8049 39.87C74.9649 39.87 77.5649 38.97 79.5849 37.18C81.6149 35.39 82.6249 32.9 82.6249 29.71C82.6249 26.52 81.6049 24.06 79.5649 22.25C77.5149 20.45 74.9349 19.54 71.8049 19.54C68.6749 19.54 66.0349 20.45 64.0249 22.25C61.9949 24.06 60.9949 26.55 60.9949 29.74V29.73ZM67.5949 29.7C67.5949 28.02 67.9649 26.68 68.6949 25.66C69.4249 24.64 70.4649 24.13 71.8149 24.13C73.1649 24.13 74.1949 24.64 74.9349 25.66C75.6749 26.68 76.0449 28.02 76.0449 29.7C76.0449 31.38 75.6749 32.72 74.9349 33.74C74.1949 34.75 73.1549 35.26 71.8149 35.26C70.4749 35.26 69.4249 34.75 68.6949 33.74C67.9649 32.72 67.5949 31.38 67.5949 29.7ZM84.4149 29.73C84.4149 32.91 85.4249 35.4 87.4449 37.19C89.4649 38.98 92.0649 39.87 95.2249 39.87C98.3849 39.87 100.985 38.97 103.005 37.18C105.035 35.39 106.045 32.9 106.045 29.71C106.045 26.52 105.025 24.06 102.985 22.25C100.935 20.45 98.3549 19.54 95.2249 19.54C92.0949 19.54 89.4549 20.45 87.4449 22.25C85.4149 24.06 84.4149 26.55 84.4149 29.74V29.73ZM91.0149 29.7C91.0149 28.02 91.3849 26.68 92.1149 25.66C92.8449 24.64 93.8849 24.13 95.2349 24.13C96.5849 24.13 97.6149 24.64 98.3549 25.66C99.0949 26.68 99.4649 28.02 99.4649 29.7C99.4649 31.38 99.0949 32.72 98.3549 33.74C97.6149 34.75 96.5749 35.26 95.2349 35.26C93.8949 35.26 92.8449 34.75 92.1149 33.74C91.3849 32.72 91.0149 31.38 91.0149 29.7ZM108.775 28.45C108.775 32.37 108.875 35.12 109.085 36.72C109.215 37.65 109.525 38.32 110.015 38.75C110.495 39.17 111.185 39.42 112.075 39.48C113.505 39.6 115.265 39.66 117.355 39.66C118.575 39.66 119.785 39.61 120.965 39.51C123.095 39.39 124.165 38.46 124.165 36.72C124.165 36.03 124.005 35.44 123.675 34.93C123.355 34.42 122.785 34.17 121.975 34.17C121.715 34.17 121.025 34.34 119.915 34.69C118.805 35.04 117.755 35.21 116.755 35.21C116.205 35.21 115.795 35.07 115.545 34.79C115.305 34.51 115.175 34.07 115.175 33.48C115.175 33.04 115.205 32.24 115.265 31.07C115.325 29.89 115.355 29.02 115.355 28.44C115.355 25.66 115.255 23.73 115.045 22.66C114.835 20.82 113.835 19.9 112.045 19.9C110.255 19.9 109.265 20.82 109.065 22.66C108.865 23.74 108.755 25.67 108.755 28.44L108.775 28.45Z" fill="#FEFEFE"/>
<path d="M126.915 23.02C126.915 25.1 127.745 26.13 129.405 26.12C130.095 26.12 131.205 25.76 132.755 25.05C134.295 24.34 135.355 23.98 135.935 23.98C136.395 23.98 136.615 24.2 136.615 24.63C136.615 24.73 136.555 24.86 136.445 25.03C136.325 25.2 136.205 25.35 136.075 25.5L135.545 26.06C135.315 26.29 135.145 26.47 135.045 26.59C134.775 26.88 133.955 27.69 132.595 29.03C131.235 30.37 130.025 31.61 128.975 32.78C128.215 33.63 127.705 34.35 127.425 34.93C127.145 35.51 127.015 36.17 127.015 36.9C127.015 37.57 127.235 38.13 127.685 38.6C128.135 39.07 128.795 39.34 129.695 39.42C131.295 39.54 133.055 39.6 134.955 39.6C137.095 39.6 139.185 39.55 141.195 39.45C142.455 39.37 143.445 39.04 144.145 38.47C144.845 37.9 145.205 37.19 145.205 36.34C145.215 34.27 144.395 33.23 142.725 33.23C142.015 33.23 140.855 33.58 139.235 34.29C137.625 35 136.565 35.35 136.065 35.35C135.465 35.35 135.165 35.13 135.165 34.7C135.165 34.4 135.695 33.76 136.745 32.77L139.375 30.17L141.455 27.95L142.695 26.57C143.455 25.74 143.975 25.03 144.255 24.44C144.535 23.86 144.675 23.19 144.675 22.44C144.675 21.77 144.445 21.2 143.985 20.74C143.525 20.27 142.855 20 141.955 19.92C140.305 19.8 138.605 19.74 136.865 19.74C134.425 19.74 132.435 19.78 130.915 19.86C129.655 19.94 128.665 20.27 127.965 20.85C127.265 21.43 126.905 22.14 126.905 22.99L126.915 23.02ZM146.925 29.35C146.925 32.85 147.025 35.3 147.235 36.7C147.515 38.54 148.515 39.46 150.255 39.46C151.995 39.46 152.925 38.54 153.195 36.7C153.405 35.3 153.515 32.86 153.515 29.35C153.505 26.12 153.395 23.89 153.195 22.64C152.995 20.8 151.995 19.88 150.215 19.88C148.435 19.88 147.435 20.8 147.235 22.64C147.035 23.88 146.925 26.12 146.925 29.35ZM156.355 29.35C156.355 32.63 156.455 35.03 156.665 36.57C156.795 37.52 157.145 38.24 157.695 38.73C158.255 39.22 158.965 39.46 159.835 39.46C160.395 39.46 160.885 39.37 161.265 39.2C161.655 39.02 161.945 38.82 162.145 38.59C162.345 38.36 162.495 38.05 162.605 37.64C162.705 37.24 162.765 36.92 162.775 36.68C162.775 36.45 162.795 36.12 162.795 35.7C162.795 34.91 162.725 34 162.575 32.97C162.435 31.93 162.355 31.35 162.355 31.23C162.355 30.61 162.525 30.3 162.855 30.3C162.955 30.3 163.065 30.33 163.165 30.39C163.275 30.45 163.395 30.55 163.525 30.7C163.665 30.84 163.785 30.99 163.885 31.12L164.345 31.71L164.845 32.35C167.205 35.2 168.495 36.76 168.725 37.01C170.165 38.65 171.455 39.47 172.575 39.47C173.265 39.47 173.855 39.22 174.365 38.72C174.865 38.23 175.185 37.51 175.305 36.58C175.515 35.04 175.625 32.64 175.625 29.36C175.615 26.36 175.505 24.16 175.305 22.77C175.035 20.85 173.985 19.89 172.165 19.89C171.505 19.89 170.955 19.99 170.525 20.2C170.085 20.41 169.775 20.7 169.605 21.08C169.425 21.46 169.305 21.81 169.245 22.15C169.185 22.49 169.155 22.89 169.155 23.37C169.155 24.07 169.225 24.94 169.365 25.97C169.505 27 169.575 27.58 169.575 27.72C169.575 28.32 169.425 28.62 169.085 28.62C168.995 28.62 168.895 28.59 168.795 28.53C168.635 28.43 168.005 27.72 166.895 26.42L163.075 22.04C162.395 21.29 161.805 20.75 161.295 20.41C160.785 20.07 160.175 19.9 159.475 19.9C158.775 19.9 158.155 20.15 157.625 20.64C157.095 21.14 156.765 21.85 156.645 22.78C156.445 24.17 156.335 26.36 156.335 29.37L156.355 29.35ZM178.375 29.7C178.375 32.88 179.385 35.37 181.405 37.16C183.425 38.95 186.025 39.84 189.185 39.84C192.345 39.84 194.945 38.94 196.965 37.15C198.985 35.36 200.005 32.87 200.005 29.68C200.005 26.49 198.985 24.03 196.945 22.22C194.895 20.42 192.315 19.51 189.195 19.51C186.075 19.51 183.435 20.42 181.415 22.22C179.395 24.03 178.385 26.52 178.385 29.71L178.375 29.7ZM184.965 29.67C184.965 27.99 185.335 26.65 186.065 25.63C186.795 24.61 187.835 24.1 189.185 24.1C190.535 24.1 191.565 24.61 192.305 25.63C193.045 26.65 193.415 27.99 193.415 29.67C193.415 31.35 193.045 32.69 192.305 33.71C191.565 34.72 190.525 35.23 189.185 35.23C187.845 35.23 186.795 34.72 186.065 33.71C185.325 32.69 184.965 31.35 184.965 29.67Z" fill="#FEFEFE"/>
<path d="M29.9844 15.4404C31.5344 14.5104 33.5447 15.0203 34.4747 16.5703C35.4046 18.1203 34.8947 20.1296 33.3448 21.0596L25.5548 25.7402L33.6553 39.4697C34.5753 41.0297 34.0649 43.0399 32.5049 43.96C30.9449 44.88 28.9347 44.3596 28.0147 42.8096L19.6153 28.5703C18.6853 26.9903 18.5554 25.4102 18.9454 23.9902C19.3754 22.4202 20.4652 21.1604 21.7852 20.3604L29.9844 15.4404ZM10.2549 19.8398C11.2348 19.8398 12.2747 20.11 13.1446 20.5898C14.0345 21.0798 14.8148 21.8101 15.3448 22.71C15.8448 23.5499 16.1348 24.5101 16.1348 25.54V41.1299C16.1348 42.9397 14.6653 44.4099 12.8555 44.4102C11.0455 44.4102 9.57526 42.9399 9.57526 41.1299V26.9297L4.94538 29.6904L4.95514 29.7002C3.40517 30.6302 1.39493 30.1202 0.46491 28.5703C-0.465048 27.0204 0.0449564 25.0101 1.59479 24.0801L7.32526 20.6504C8.26522 20.0904 9.27499 19.8399 10.2549 19.8398ZM16.5049 0C21.7549 0 26.0049 4.25 26.0049 9.5C26.0049 14.75 21.7549 19 16.5049 19C11.255 19 7.00495 14.75 7.00495 9.5C7.00495 4.25003 11.255 4.45197e-05 16.5049 0ZM12.295 12.3096C11.9452 12.0099 11.8854 12.3103 12.1153 12.7002C13.8155 15.5399 19.1954 15.5401 20.9053 12.7002H20.9151C21.145 12.3104 21.085 12.0102 20.7354 12.3096C20.1355 12.8095 19.4551 13.1397 18.7452 13.3896C17.4252 13.8496 15.6052 13.8496 14.2852 13.3896C13.5752 13.1496 12.885 12.8096 12.295 12.3096ZM21.9952 5.73047C19.9152 5.78047 19.2149 5.88 17.2549 6.5C17.0251 6.56995 16.7652 6.61031 16.4854 6.61035C16.2054 6.61035 15.9549 6.57 15.7149 6.5C13.765 5.88003 13.0546 5.77047 10.9747 5.73047C10.7544 5.73048 10.085 5.73956 9.48542 5.76953C8.96542 5.78953 8.4946 5.81996 8.3946 5.95996C8.07491 6.38997 8.70481 7.0502 8.84479 7.62012C8.98474 8.15991 9.15488 8.69966 9.34479 9.09961C9.62477 9.66956 9.875 10.1199 10.2549 10.4199C11.1649 11.1299 13.0355 11.1104 14.0655 10.6504C15.1954 10.1503 15.8751 9.00953 16.1651 7.84961C16.2053 7.66988 16.3755 7.58984 16.4854 7.58984H16.5147C16.6246 7.58984 16.7949 7.66987 16.835 7.84961C17.125 9.00955 17.8047 10.1503 18.9346 10.6504C19.9646 11.1104 21.8452 11.1299 22.7452 10.4199C23.1251 10.1199 23.3754 9.66954 23.6553 9.09961H23.6251C23.825 8.70965 23.9851 8.15994 24.1251 7.62012C24.2651 7.05015 24.8851 6.38996 24.5753 5.95996C24.4753 5.82999 24.0053 5.79952 23.4854 5.76953C22.8856 5.72954 22.2153 5.73047 21.9952 5.73047Z" fill="#FFAF36"/>
</svg>
