<svg width="160" height="40" viewBox="0 0 160 40" fill="none" xmlns="http://www.w3.org/2000/svg">
<path d="M0.00248915 27.1736H4.59393C4.67646 28.4715 5.7718 29.2893 8.33761 29.3043C10.6558 29.3268 11.7962 28.6141 11.7962 27.6388C11.7962 26.8885 11.2635 26.3184 9.47797 26.0333L7.32479 25.6882C4.09128 25.1405 0.430124 24.5928 0.430124 20.444C0.430124 17.113 3.15348 15.0948 8.38263 15.0948C13.1166 15.0948 16.4327 16.5203 16.3726 21.1943H11.8187C11.5936 19.9114 10.5583 19.1011 8.26259 19.1011C6.25196 19.1011 5.33667 19.7313 5.33667 20.6841C5.33667 21.3518 5.80181 21.967 7.26477 22.2071L9.07284 22.5297C12.4264 23.0999 16.8603 23.3399 16.8603 27.8338C16.8603 31.435 14.0169 33.3256 8.34511 33.3031C2.67333 33.2806 -0.0950415 31.4575 0.00248915 27.1736Z" fill="url(#paint0_linear_15208_1494)"/>
<path d="M18.0607 15.665H27.4911C32.1051 15.665 34.7909 17.7807 34.7909 22.1921C34.7909 26.6035 32.1051 28.7191 27.5136 28.7191H23.1623V32.7479H18.0607V15.665ZM27.086 24.4653C28.654 24.4653 29.6443 23.715 29.6443 22.1846C29.6443 20.6541 28.6465 19.9039 27.086 19.9039H23.1623V24.4578H27.086V24.4653Z" fill="url(#paint1_linear_15208_1494)"/>
<path d="M36.1114 15.665H41.213V32.7404H36.1114V15.665Z" fill="url(#paint2_linear_15208_1494)"/>
<path d="M48.6103 15.665L55.0323 25.6507H55.4975V15.665H60.479V32.7404H54.7247L48.1601 22.7547H47.71V32.7404H42.7284V15.665H48.6103Z" fill="url(#paint3_linear_15208_1494)"/>
<path d="M69.4972 15.3423L70.8551 15.1623L72.153 15.2748H73.4435L74.7189 15.0422L76.0318 14.9147L76.5869 16.1976L76.917 17.5405L77.4872 18.7934L77.8398 20.1288L78.5376 21.3292L78.9127 22.6571L79.5879 23.8725L79.8655 25.283L80.2031 25.0729L80.5032 23.775L81.0058 22.4846L81.441 21.1792L81.8236 19.8587L81.8461 18.4558L82.0937 17.0979L82.6038 15.8075L82.8289 14.382L84.1943 14.4045L85.4847 14.337L86.7676 14.1269L88.0656 14.0894L89.3034 14.0669L89.2584 15.4399L89.6861 16.8353L89.446 18.2758L89.8586 19.6712V21.0966L89.7761 22.5221L89.8736 23.94L90.1362 25.3505L90.3763 26.7609L90.1737 28.2014L90.4963 29.6118L90.5788 31.0598L89.3335 31.1723L88.1181 31.2848L86.8877 31.1798L85.6948 31.3674L85.5823 29.9794L85.5673 28.5615L85.3272 27.166V25.7481L85.1922 24.3377L85.0196 22.9497L84.832 23.0322L84.5319 24.4427L83.7817 25.7856L83.5191 27.2486L83.084 28.6665V30.197L82.5888 31.6149L81.3134 31.8925L80.008 31.63L78.7326 31.885L78.0724 30.5496L77.8098 29.0566L76.902 27.8263L76.3844 26.4383L76.1743 24.9228L75.289 23.73L75.214 23.6925L74.9889 25.0654L75.109 26.4758L75.214 27.8788L75.6116 29.2667V30.6847L75.6867 32.1626L74.3963 32.1176L73.1959 32.3277L71.973 32.2677L70.6676 32.5452L70.6826 31.0298L70.6376 29.6043L70.54 28.1864L70.4125 26.7684L70.4425 25.343L70.1574 23.94L70.0974 22.5221L69.8648 21.1116V19.6862L69.8123 18.2607L69.4672 16.8578L69.4822 15.3498L69.4972 15.3423Z" fill="url(#paint4_linear_15208_1494)"/>
<path d="M104.968 27.7137L103.783 27.6537L102.5 27.6837L101.225 27.7362L99.9418 27.8112L98.6589 27.8413L97.316 28.0138L96.9108 29.3267L96.6858 30.5796L95.4029 30.6096L94.105 30.8872L92.7845 30.9247L91.3891 31.0448L91.7267 29.5968L92.3119 28.3064L92.7845 26.986L93.0621 25.6056L93.4222 24.2551L93.7824 22.8972L94.345 21.6068L94.6751 20.2414L95.2153 18.936L95.4179 17.533L95.9355 16.2201L96.1606 14.8172L96.7383 13.6168L98.0512 13.2117L99.4766 13.1066L100.917 13.1891L102.358 13.2117L103.685 13.1441L104.458 14.217L105.103 15.4624L105.516 16.8203L106.214 18.0432L106.671 19.3711L107.234 20.654L107.924 21.8769L108.464 23.1748L108.967 24.4877L109.447 25.8081L110.318 26.956L110.61 28.3739L111.465 29.6193L110.062 29.6718L108.735 29.5968L107.414 29.6868L106.109 29.9344L105.479 28.8016L104.983 27.6987L104.968 27.7137ZM103.325 23.775L102.98 22.6946L102.538 21.5018L102.072 20.3164L101.592 19.1385L101.097 17.8706L100.002 17.9907L99.6192 19.2661L99.3866 20.519L99.0115 21.7343L98.8615 23.0172L98.4713 24.2101L99.6942 24.0376L100.947 23.9025L102.223 24.0076L103.325 23.7825V23.775Z" fill="url(#paint5_linear_15208_1494)"/>
<path d="M111.218 12.604L112.351 12.2739L113.656 12.4989L114.932 12.2739L116.222 12.1988L117.557 11.9513L117.992 13.3167L118.57 14.5621L119.02 15.86L119.575 17.1204L119.898 18.4708L120.506 19.7087L121.023 20.9841L121.511 22.267L121.676 22.1545L122.201 20.9166L122.351 19.5436L122.877 18.2607L123.012 16.8803L123.252 15.5299L123.799 14.247L123.912 12.859L124.272 11.4186L125.675 11.3061L126.98 11.4861L128.271 11.3661L129.546 11.0135L130.852 11.111L130.889 12.5289L130.949 13.9544L131.032 15.3723L131.062 16.7978L131.219 18.2157L131.287 19.6337L131.489 21.0441L131.542 22.4696L131.834 23.8725L131.879 25.298L132.052 26.7159L132.172 28.2389L130.829 28.1864H129.606L128.398 28.4114L127.145 28.524L126.995 27.091L127.078 25.6731L126.905 24.2701L126.965 22.8522L126.658 21.4568L126.688 20.0088L126.268 20.1138L125.675 21.4718V22.9947L125.322 24.4352L124.79 25.8306L124.317 27.2411L123.957 28.5765L122.824 28.9141L121.549 29.0791L120.273 28.9741L119.613 27.6537L119.2 26.2208L118.675 24.8403L118.015 23.5049L117.512 22.102L117.04 20.669L116.364 20.699L116.785 22.1395L116.545 23.5724L116.957 24.9604V26.3783L116.875 27.8037L117.002 29.1017L115.929 29.2817L114.729 29.5068L113.491 29.2892L112.253 29.5818L112.148 28.1339L112.036 26.7159L111.908 25.298L112.006 23.865L111.811 22.4546L111.69 21.0366L111.675 19.6112L111.435 18.2007V16.7753L111.3 15.3573L111.12 13.9319L111.233 12.619L111.218 12.604Z" fill="url(#paint6_linear_15208_1494)"/>
<path d="M146.584 24.5852L145.264 24.6152L144.003 24.9453L142.713 24.8328L141.445 25.0204L140.169 25.2229L138.857 25.1629L138.519 26.4383L138.241 27.7512L136.883 27.6762L135.578 27.9088L134.265 28.0813L133.087 27.9688L133.23 26.6934L133.912 25.433L134.183 24.0526L134.595 22.7171L134.835 21.3292L135.33 20.0163L135.653 18.6509L136.096 17.323L136.441 15.965L137.011 14.6746L137.304 13.2942L137.686 11.9363L138.106 10.5858L139.524 10.3007L140.965 10.4208L142.383 10.1582L143.831 10.2632L145.316 10.0006L146.014 11.2911L146.396 12.6565L147.162 13.8494L147.762 15.1173L148.317 16.4002L148.67 17.7806L149.277 19.041L150.088 20.2114L150.508 21.5618L151.033 22.8597L151.588 24.1501L152.158 25.4405L152.691 26.5884L151.521 26.6409L150.2 26.7084L148.887 26.896L147.619 26.956L146.974 25.8756L146.576 24.5927L146.584 24.5852ZM145.023 20.9766L144.581 19.7237L143.861 18.6509L143.553 17.398L142.968 16.2651L142.405 15.1848L141.565 15.1323L141.242 16.3777L140.995 17.623L140.485 18.8084L140.289 20.0763L140.019 21.2392L141.205 21.3892L142.443 21.0066L143.718 21.2167L145.023 20.9841V20.9766Z" fill="url(#paint7_linear_15208_1494)"/>
<path d="M64.1255 39.1548L65.4009 35.6362L64.9583 34.6459L64.7257 32.8828L64.7032 31.9601L63.4428 30.1895L64.3956 28.6815L63.5854 27.3836L64.4031 25.9807L63.9005 25.2604L63.1652 23.0097L63.9155 21.8469L63.2853 21.0366L63.0527 19.146L63.0827 17.1654L64.0805 15.8225L64.028 15.5299L62.37 13.7893L63.4428 11.6512L63.6679 9.16788L66.3087 9.528L67.6966 9.50549L68.9195 9.67804L70.2024 9.34794L71.4928 9.37795L72.8883 8.81527L74.0962 8.92031L75.4391 7.9525L77.1046 8.14006L78.2675 7.78745L80.2031 7.32981L81.9436 8.29011L82.6188 8.41765L83.6917 7.87748L87.1353 7.17976L88.4932 7.83997L89.8061 7.41983L90.9465 7.88498L92.2219 6.89467L93.6998 7.40483L95.2678 6.31699L96.4157 7.12724L97.2184 6.07691L99.6942 5.89686L101.405 6.76713L102.59 7.14975L103.085 7.21727L104.128 6.06941L106.491 5.35669L107.804 6.06941L109.035 5.46172L110.82 6.12193H111.608L113.026 5.45422L115.014 5.64178L116.545 5.97188L117.025 6.11442L118.69 4.1263L120.198 5.53674L121.068 4.53143L123.649 5.21414L124.752 5.7243L125.39 5.68679L126.493 5.01158L128.721 3.84121L130.026 4.92905L130.769 4.32886L132.607 4.23883L133.912 4.10379L135.743 3.8112L137.041 4.48641L138.099 4.1338L139.727 3.90873L140.867 4.1263L142.263 3.38356L143.906 3.8112L144.858 3.60864L146.096 3.20351L147.702 2.59582L149.908 2.20569L151.31 3.78869L152.106 3.5111L153.216 3.72117L157.582 0L156.72 5.37919L157.958 7.23228L156.465 8.74775L156.765 9.25791L157.747 11.4636L156.945 12.4089L158.063 13.1967L157.95 15.995L157.297 16.6477L158.19 17.2779L158.49 20.0013L157.162 21.4718L157.335 23.0247L158.97 24.5177L158.483 26.5809L158.558 28.1188L157.995 29.3642L159.195 32.9729L155.017 31.6825L154.101 31.4949L153.314 31.795L151.288 33.1454L149.645 32.0276L148.782 32.3652L147.694 32.3952L145.931 34.0157L143.868 32.6578H143.14L141.602 33.1079L140.552 32.8603L139.164 34.0682L137.033 33.318L136.261 33.1829L135.375 33.6631L133.47 34.6234L131.249 33.9932L130.701 33.7381L129.186 35.096L127.34 33.6256L126.883 33.7681L125.51 34.5259L123.687 34.9835L121.826 35.111L121.038 34.6459L119.59 36.2964L117.865 34.811L117.302 35.2086L114.984 35.9213L114.009 35.1861L113.191 36.1089L111.128 36.1239L109.297 36.1014L108.254 35.4787L106.941 36.2439L105.351 35.3661L104.053 35.8613L103.085 35.4111L102.125 36.559L100.234 36.6865L98.7939 37.0467L96.8058 36.9941L95.2978 36.1164L94.9002 36.0714L93.2797 37.5868L91.4866 36.544L90.8039 36.8141L88.9133 37.6543L87.2403 36.9341L86.43 37.0317L84.6145 37.6919L83.2941 37.0091L82.4088 37.4668L80.2706 38.1795L79.2653 37.3843L77.9299 38.8922L76.0918 37.2942L75.3341 37.6844L74.0136 37.7069L72.4832 38.6822L70.8626 38.262L69.6173 38.6897L68.0718 38.5471L64.103 39.1773L64.1255 39.1548ZM68.6119 35.5612L69.2721 35.6212L70.7651 35.111L71.9955 35.4261L73.1434 34.6984L74.6138 34.6759L76.5494 33.6706L77.6823 34.6534L78.9277 33.243L80.8858 34.7884L81.3509 34.6309L83.2791 33.5731L84.8545 34.3908L85.7623 34.0607L87.7204 33.8281L88.9283 34.3458L89.6786 34.0082L91.7717 33.1829L92.8896 33.8356L93.8874 32.9054L96.2956 33.1679L97.6911 33.9857L98.5013 34.0082L99.9418 33.6706L100.685 33.6256L102.29 31.6975L104.196 32.5828L105.614 32.0426L106.926 32.7703L108.299 31.9676L110.168 33.0854L111.158 33.1004H111.856L113.626 31.0973L115.592 32.5828L115.997 32.4552L118.09 30.9923L119.328 32.0576L120.461 30.7672L122.584 32.0351L123.364 31.9826L124.414 31.705L125.87 30.9397L127.993 30.272L129.103 31.1573L130.206 30.167L132.427 31.2098L133.17 31.4124L134.003 30.9923L135.758 30.0319L137.926 30.4296L138.526 30.6396L139.757 29.5668L141.535 29.9869L142.72 29.6418H144.776L145.639 30.2045L146.494 29.4168L148.182 29.3642L150.028 28.644L151.303 29.5143L151.933 29.0942L153.854 28.3664L155.032 28.6065L155.519 27.5337L155.459 26.2958L155.639 25.5305L154.446 24.4352L154.266 22.4696L153.996 20.4664L155.354 18.966V18.936L152.638 17.0379L154.987 14.6971L152.526 12.9641L154.229 10.9534L154.056 10.5633L152.653 8.32012L154.026 6.91718L152.316 6.59457L150.38 7.26979L148.752 5.43921L148.347 5.51423L147.042 6.0319L145.519 6.51955L143.801 6.87966L142.608 6.57207L141.31 7.26229L139.614 6.93968L138.639 7.07473L136.808 7.75744L135.21 6.92468L134.235 7.08223L132.772 7.23228L131.872 7.27729L129.974 8.80027L128.316 7.42734L127.903 7.64491L126.29 8.63522L124.152 8.76276L122.494 7.99001L122.104 7.89248L120.401 9.8506L118.93 8.47767L118.03 9.5505L115.719 8.86779L114.451 8.5977L113.544 8.51518L112.261 9.11537H110.265L109.185 8.72525L107.722 9.45297L106.139 8.5902L105.771 8.70274L104.226 10.3983L101.78 10.0532L100.129 9.50549L99.0565 8.95782L98.7564 8.98033L97.0084 11.261L95.2228 9.99314L94.135 10.7434L92.7545 10.2707L91.3891 11.3286L89.6561 10.6158L88.2381 11.066L86.7076 10.3232L84.6595 10.7359L83.0465 11.5461L80.9008 11.1485L79.7454 10.5108L78.9877 10.6909L77.3747 11.1935L76.2343 11.066L74.9214 12.0038L73.3234 11.8687L72.0105 12.3939L70.5175 12.3564L69.0696 12.7315L67.4866 12.5139L66.3312 12.5289L65.9711 13.2417L66.8039 14.1119L67.2315 16.5652L66.0461 18.1632L66.0311 18.9735L66.1362 19.8362L67.5616 21.6668L66.4363 23.4149L66.5938 23.8875L67.9367 25.8156L67.0665 27.3086L67.9217 28.674L67.0364 30.0695L67.6666 30.9472L67.7041 32.7103L67.8542 33.7906L68.6194 35.4937L68.6044 35.5312L68.6119 35.5612Z" fill="url(#paint8_linear_15208_1494)"/>
<defs>
<linearGradient id="paint0_linear_15208_1494" x1="81.0616" y1="-15.1897" x2="80.9439" y2="50.0121" gradientUnits="userSpaceOnUse">
<stop stop-color="#D0FF01"/>
<stop offset="1" stop-color="#00A6D4"/>
</linearGradient>
<linearGradient id="paint1_linear_15208_1494" x1="80.383" y1="-17.1713" x2="80.2503" y2="52.3438" gradientUnits="userSpaceOnUse">
<stop stop-color="#D0FF01"/>
<stop offset="1" stop-color="#00A6D4"/>
</linearGradient>
<linearGradient id="paint2_linear_15208_1494" x1="83.5776" y1="-16.955" x2="83.5358" y2="52.5911" gradientUnits="userSpaceOnUse">
<stop stop-color="#D0FF01"/>
<stop offset="1" stop-color="#00A6D4"/>
</linearGradient>
<linearGradient id="paint3_linear_15208_1494" x1="80.8088" y1="-16.7141" x2="80.6635" y2="52.8318" gradientUnits="userSpaceOnUse">
<stop stop-color="#D0FF01"/>
<stop offset="1" stop-color="#00A6D4"/>
</linearGradient>
<linearGradient id="paint4_linear_15208_1494" x1="80.616" y1="-11.5639" x2="80.4729" y2="52.6855" gradientUnits="userSpaceOnUse">
<stop stop-color="#D0FF01"/>
<stop offset="1" stop-color="#00A6D4"/>
</linearGradient>
<linearGradient id="paint5_linear_15208_1494" x1="80.9065" y1="-9.43795" x2="80.7576" y2="56.7465" gradientUnits="userSpaceOnUse">
<stop stop-color="#D0FF01"/>
<stop offset="1" stop-color="#00A6D4"/>
</linearGradient>
<linearGradient id="paint6_linear_15208_1494" x1="80.2785" y1="-4.36887" x2="80.1328" y2="59.5851" gradientUnits="userSpaceOnUse">
<stop stop-color="#D0FF01"/>
<stop offset="1" stop-color="#00A6D4"/>
</linearGradient>
<linearGradient id="paint7_linear_15208_1494" x1="80.8467" y1="-1.91823" x2="80.7035" y2="63.7607" gradientUnits="userSpaceOnUse">
<stop stop-color="#D0FF01"/>
<stop offset="1" stop-color="#00A6D4"/>
</linearGradient>
<linearGradient id="paint8_linear_15208_1494" x1="110.895" y1="8.86029" x2="110.655" y2="39.1623" gradientUnits="userSpaceOnUse">
<stop stop-color="#D0FF01"/>
<stop offset="1" stop-color="#00A6D4"/>
</linearGradient>
</defs>
</svg>
