<svg xmlns="http://www.w3.org/2000/svg" width="116" height="36" fill="none"><path fill="#fff" fill-rule="evenodd" d="M95.525 21.428c-.312-.435-.25-.684.063-1.12 2.184-2.676 4.307-5.352 6.492-8.028.124-.125.124-.312.187-.436a1.16 1.16 0 0 0-.437-.125h-4.931c-.75 0-1.249.25-1.686.81-1.498 1.867-2.996 3.734-4.432 5.538l-.936 1.12c-.063 0-.063-.062-.125-.062 0-.186 0-.373.063-.56.436-3.174.873-6.41 1.31-9.584.125-.685 0-.81-.686-.81h-4.12c-.624 0-.812.125-.936.81a2274.632 2274.632 0 0 1-3.059 20.289c-.125.685 0 .747.687.747h4.37c.498 0 .748-.25.81-.747.188-1.245.375-2.552.562-3.796l.625-4.108c.187.249.312.373.436.56 1.686 2.49 3.371 4.917 4.994 7.406.375.498.75.747 1.374.747h4.681c.187 0 .375-.062.624-.062-.124-.187-.124-.311-.249-.436a639.806 639.806 0 0 1-5.68-8.153Zm-55.804 0c-.125-.249-.188-.435 0-.684 2.184-2.614 4.432-5.166 6.616-7.78.312-.311.562-.684.874-1.12-.187-.062-.312-.062-.437-.062h-5.618c-.312 0-.686.248-.874.498-.374.373-.624.809-.936 1.182-.811 1.058-1.623 2.054-2.497 3.174-.125-.249-.25-.436-.312-.622-.624-1.245-1.248-2.552-1.873-3.797-.187-.373-.437-.56-.873-.56h-4.308c-.312 0-.624.062-.936.125.125.31.25.622.375.87l4.307 7.283c.125.248.25.435 0 .684-2.31 2.614-4.557 5.228-6.867 7.842-.374.436-.749.871-1.186 1.431.188.063.25.063.375.063h5.618c.374 0 .749-.187.999-.498.936-1.058 1.747-2.116 2.621-3.237.375-.497.812-.933 1.249-1.493.125.186.187.249.25.373.748 1.37 1.435 2.739 2.184 4.108.25.498.624.747 1.186.747h4.432c.187 0 .375-.063.624-.125-.125-.249-.187-.498-.312-.622-1.56-2.49-3.12-5.166-4.681-7.78Zm75.654-9.709h-2.871c.187-.995.374-1.929.562-2.863.062-.435-.063-.622-.437-.622h-4.744c-.437 0-.562.187-.687.56-.125.81-.312 1.68-.499 2.49-.063.31-.188.435-.5.435-.624 0-1.248-.062-1.81 0-.312 0-.686.187-.811.374-.937 1.12-1.748 2.303-2.622 3.485-.125.125-.187.311-.312.56h5.243c-.062.25-.062.374-.062.56-.375 1.93-.749 3.797-.999 5.726-.187 1.058-.312 2.178-.25 3.236.188 2.179 1.374 3.61 3.371 4.295 2.185.747 4.245.249 6.242-.747.5-.25.749-.623.749-1.183l.188-3.174c0-.435.062-.871.062-1.431-.312.186-.499.311-.687.435-.811.498-1.623.934-2.559.996-.936.063-1.498-.373-1.498-1.307 0-.622.062-1.245.187-1.867l1.124-5.601h2.746c.437 0 .749-.187.874-.623.25-1.057.437-2.053.625-3.111 0-.374-.188-.623-.625-.623Zm-54.556.81c-1.873-1.183-3.933-1.307-5.992-.996-.25.062-.562.062-.874.124.062-.311.124-.56.187-.809.125-.685 0-.934-.75-.934h-3.807c-.562 0-.811.25-.999.747-.125.436-.187.81-.25 1.245-1.31 7.033-2.247 14.128-3.245 21.16-.125.685.062.934.811.934h3.87c.75 0 1-.249 1.124-1.058.125-1.058.312-2.116.437-3.236.187.062.312.124.437.124.999.187 2.06.436 3.059.436 3.245 0 5.93-1.37 7.74-4.17 1.623-2.427 2.06-5.166 1.623-8.029-.312-2.302-1.373-4.232-3.371-5.539Zm-2.996 9.957c-.874 2.49-3.059 3.423-5.306 3.05-.437-.062-.5-.436-.437-.81.125-.87.25-1.804.375-2.675.25-1.68.561-3.299.749-4.98.187-1.369.499-1.306 1.56-1.369 2.06 0 3.246 1.12 3.496 3.175.125 1.244 0 2.489-.437 3.61ZM25.8 24.664c-.313.125-.5.187-.687.25-1.373.497-2.747 1.12-4.182 1.244-1.124.125-2.247.187-3.309-.187-1.31-.435-2.06-2.053-1.872-3.05h10.112c.749 0 .999-.186 1.061-.933.063-1.12.187-2.24.125-3.36-.187-2.614-1.186-4.793-3.433-6.162-3.059-1.867-7.553-1.307-10.3 1.245a10.639 10.639 0 0 0-3.12 5.041c-.126.373-.25.56-.687.498a6.027 6.027 0 0 0-1.499 0c-.312.062-.686.249-.873.436-.687.809-1.249 1.618-1.873 2.49-.125.186-.25.435-.437.684.312.062.5.062.749.062h3.683c.5 0 .624.124.687.622.437 2.8 1.872 4.917 4.494 5.975 3.37 1.37 6.804 1.12 10.112-.373.25-.125.437-.436.5-.685l.561-2.614c0-.311.063-.685.188-1.183Zm-7.928-8.588c1.186-1.12 3.059-.623 3.433.996.188.684.125 1.369.25 2.116h-5.493c.5-1.12.874-2.24 1.81-3.112Zm64.419 1.867c-.312-2.116-1.186-3.859-2.871-5.103-3.122-2.365-8.677-1.992-11.923 2.053-1.997 2.552-2.684 5.415-2.247 8.651.5 3.174 2.247 5.29 5.18 6.286 3.184.996 6.368.747 9.427-.622.187-.125.436-.374.436-.623.25-1.12.437-2.302.687-3.423v-.435c-.187.062-.374.124-.5.186-.81.312-1.685.685-2.496.934-1.56.498-3.121.747-4.744.373-1.436-.31-2.435-1.68-2.31-3.174h10.3c.624 0 .811-.186.936-.809.25-1.493.312-2.863.125-4.294Zm-5.493.933c0 .125-.187.374-.25.374h-5.118c.437-1.12.874-2.178 1.623-2.987.686-.747 1.498-.872 2.372-.623.873.25 1.186 1.058 1.31 1.93.063.373.063.87.063 1.306ZM4.542 4.218c.014-.08.027-.147.027-.2 0-.134-.067-.187-.254-.187-.349 0-1.18.347-1.688.614l-.738 4.196H0l1.112-6.347 1.661-.28-.013.721C3.778 2.254 4.582 2 5.333 2c.871 0 1.193.494 1.193 1.323 0 .227-.014.414-.067.748l-.804 4.57h-1.89l.777-4.423Zm3.233 7.31-.483-1.484c.898-.334 1.488-.749 1.93-1.403h-.603L7.72 2.334l1.89-.267.495 4.85 1.367-3.247a2.295 2.295 0 0 0 .094-1.39l1.836-.266c.054.186.094.467.094.788 0 .374-.053.802-.214 1.176L11.178 8.64c-.75 1.496-1.407 2.245-3.403 2.886Zm9.852-7.697c0-.227-.201-.375-.55-.375-.683 0-.884.388-.978.923l-.08.454c.321-.08.468-.107.857-.227.509-.147.75-.388.75-.775Zm-3.418.628C14.477 2.962 15.147 2 17.212 2c1.232 0 2.17.535 2.17 1.63 0 1.27-.656 1.858-2.264 2.338-.791.241-.805.241-1.368.388l-.08.454c-.04.241-.014.455.335.455.683 0 1.675-.335 2.56-.722l.362 1.336c-.791.495-2.038.895-3.19.895-1.353 0-1.93-.587-1.93-1.696 0-.241.027-.508.081-.789l.321-1.83Z" clip-rule="evenodd"/></svg>