<svg width="64" height="64" viewBox="0 0 64 64" fill="none" xmlns="http://www.w3.org/2000/svg">
  <!-- Background Circle -->
  <circle cx="32" cy="32" r="30" fill="#FFD93D" stroke="#FFA500" stroke-width="2"/>
  
  <!-- Casino Chip - Outer -->
  <circle cx="32" cy="32" r="20" fill="#0B0C10" stroke="#FFD93D" stroke-width="2"/>
  
  <!-- Casino Chip - Inner -->
  <circle cx="32" cy="32" r="14" fill="#FFD93D" opacity="0.2"/>
  
  <!-- Chip Center Design -->
  <circle cx="32" cy="32" r="8" fill="#FFD93D" opacity="0.4"/>
  
  <!-- Decorative Lines on Chip -->
  <line x1="32" y1="18" x2="32" y2="22" stroke="#FFD93D" stroke-width="2"/>
  <line x1="32" y1="42" x2="32" y2="46" stroke="#FFD93D" stroke-width="2"/>
  <line x1="18" y1="32" x2="22" y2="32" stroke="#FFD93D" stroke-width="2"/>
  <line x1="42" y1="32" x2="46" y2="32" stroke="#FFD93D" stroke-width="2"/>
  
  <!-- Decorative Cards - Top -->
  <rect x="10" y="6" width="6" height="10" rx="1" fill="#FFD93D" opacity="0.9"/>
  <rect x="48" y="6" width="6" height="10" rx="1" fill="#FFD93D" opacity="0.9"/>
  
  <!-- Decorative Cards - Bottom -->
  <rect x="10" y="48" width="6" height="10" rx="1" fill="#FFD93D" opacity="0.9"/>
  <rect x="48" y="48" width="6" height="10" rx="1" fill="#FFD93D" opacity="0.9"/>
  
  <!-- Stars -->
  <path d="M32 2 L33 6 L37 6 L33.5 8.5 L35 12 L32 9.5 L29 12 L30.5 8.5 L27 6 L31 6 Z" fill="#FFD93D" opacity="0.9"/>
  <path d="M32 62 L33 58 L37 58 L33.5 55.5 L35 52 L32 54.5 L29 52 L30.5 55.5 L27 58 L31 58 Z" fill="#FFD93D" opacity="0.9"/>
</svg>
